<svg xmlns="http://www.w3.org/2000/svg" width="41" height="36" fill="none" viewBox="0 0 41 36"><path fill="#8dc84b" d="M12.003 30.25h5.9v-1.9h-4v-2.3h4v-5.9h-5.9v1.9h4v2.1h-4zm14.3 0h1.9v-10.1h-1.9v4h-2.1v-4h-1.9v5.9h4zm11.8-14.2V33q0 1.2-.9 2.1t-2.1.9H5.052q-1.2 0-2.1-.9t-.9-2.1V16.05a5.66 5.66 0 0 1-1.85-2.95 6.26 6.26 0 0 1 .1-3.5l2.15-6.75q.4-1.35 1.4-2.1t2.3-.75h27.65q1.4 0 2.45.775t1.45 2.075l2.2 6.75a6.1 6.1 0 0 1 .075 3.5 5.8 5.8 0 0 1-1.876 2.95m-13.5-1.55q1.45 0 2.45-.95t.8-2.3L26.603 3h-5v8.25q0 1.3.85 2.275t2.15.975m-9.35 0q1.399 0 2.375-.95.974-.95.974-2.3V3h-5l-1.25 8.25q-.2 1.3.7 2.275t2.2.975m-9.1 0q1.2 0 2.074-.825a3.26 3.26 0 0 0 1.025-2.025l1.3-8.65h-5l-2.3 7.3q-.5 1.55.4 2.875t2.5 1.325m27.85 0q1.6 0 2.525-1.3t.425-2.9l-2.3-7.3h-5l1.3 8.65q.15 1.2 1.024 2.025.876.825 2.025.825M5.052 33h30.05V17.45q.05.05-.325.05h-.776a5.55 5.55 0 0 1-2.375-.525q-1.125-.525-2.224-1.625a5.65 5.65 0 0 1-2 1.575q-1.2.575-2.65.575-1.5 0-2.576-.425-1.074-.425-2.075-1.425-.75.9-1.9 1.375t-2.6.475q-1.55 0-2.75-.55t-2.05-1.6q-1.2 1.05-2.35 1.6t-2.3.55h-.675q-.324 0-.425-.05z"/></svg>