<svg xmlns="http://www.w3.org/2000/svg" width="44" height="32" fill="none" viewBox="0 0 44 32"><path fill="#8dc84b" d="M9.206 31.95q-2.456 0-4.181-1.72Q3.3 28.507 3.3 26.05H0V3Q0 1.8.9.9T3 0h28.95v8.35h5.25L44 17.4v8.65h-3.55q0 2.458-1.72 4.18-1.718 1.72-4.174 1.72t-4.181-1.72q-1.725-1.722-1.725-4.18H15.1q0 2.45-1.72 4.175-1.718 1.725-4.174 1.725m-.006-3q1.2 0 2.05-.85t.85-2.05-.85-2.05a2.8 2.8 0 0 0-2.05-.85q-1.2 0-2.05.85a2.8 2.8 0 0 0-.85 2.05q0 1.2.85 2.05t2.05.85M3 23.05h1.1a6.6 6.6 0 0 1 2.152-2.15q1.302-.8 2.9-.8a5.4 5.4 0 0 1 2.923.825 7 7 0 0 1 2.175 2.125h14.7V3H3zm31.55 5.9q1.2 0 2.05-.85t.85-2.05T36.6 24a2.8 2.8 0 0 0-2.05-.85q-1.2 0-2.05.85a2.8 2.8 0 0 0-.85 2.05q0 1.2.85 2.05t2.05.85m-2.6-10.2h9.3l-5.55-7.4h-3.75z"/></svg>